<?xml version="1.0" encoding="UTF-8"?>
<svg xmlns="http://www.w3.org/2000/svg" xmlns:xlink="http://www.w3.org/1999/xlink" width="48px" height="29px" viewBox="0 0 48 29" version="1.1">
<g id="surface1">
<path style=" stroke:none;fill-rule:nonzero;fill:rgb(100%,60%,0%);fill-opacity:1;" d="M 47.683594 14.582031 C 47.6875 22.464844 41.339844 28.855469 33.511719 28.859375 C 25.683594 28.859375 19.332031 22.472656 19.332031 14.585938 C 19.332031 14.585938 19.332031 14.582031 19.332031 14.582031 C 19.328125 6.695312 25.675781 0.304688 33.503906 0.300781 C 41.335938 0.300781 47.683594 6.6875 47.683594 14.574219 C 47.683594 14.574219 47.683594 14.578125 47.683594 14.582031 Z M 47.683594 14.582031 "/>
<path style=" stroke:none;fill-rule:nonzero;fill:rgb(80%,0%,0%);fill-opacity:1;" d="M 14.398438 0.304688 C 6.617188 0.355469 0.316406 6.730469 0.316406 14.582031 C 0.316406 22.460938 6.664062 28.855469 14.492188 28.855469 C 18.164062 28.855469 21.511719 27.445312 24.03125 25.136719 L 24.035156 25.136719 C 24.550781 24.664062 25.03125 24.152344 25.472656 23.605469 L 22.566406 23.605469 C 22.179688 23.136719 21.828125 22.644531 21.511719 22.136719 L 26.519531 22.136719 C 26.824219 21.644531 27.101562 21.136719 27.34375 20.609375 L 20.683594 20.609375 C 20.457031 20.117188 20.261719 19.617188 20.089844 19.109375 L 27.9375 19.109375 C 28.410156 17.683594 28.667969 16.164062 28.667969 14.582031 C 28.667969 13.53125 28.554688 12.507812 28.339844 11.523438 L 19.675781 11.523438 C 19.78125 11.015625 19.917969 10.515625 20.078125 10.023438 L 27.929688 10.023438 C 27.753906 9.5 27.550781 8.988281 27.320312 8.496094 L 20.683594 8.496094 C 20.921875 7.980469 21.195312 7.480469 21.496094 6.996094 L 26.503906 6.996094 C 26.167969 6.460938 25.800781 5.949219 25.402344 5.46875 L 22.609375 5.46875 C 23.042969 4.957031 23.519531 4.472656 24.035156 4.023438 C 21.515625 1.714844 18.164062 0.304688 14.492188 0.304688 C 14.460938 0.304688 14.429688 0.304688 14.398438 0.304688 Z M 14.398438 0.304688 "/>
<path style=" stroke:none;fill-rule:nonzero;fill:rgb(98.823529%,70.196078%,25.098039%);fill-opacity:1;" d="M 46.261719 22.042969 C 46.339844 22.042969 46.414062 22.0625 46.488281 22.101562 C 46.5625 22.144531 46.617188 22.199219 46.660156 22.273438 C 46.699219 22.347656 46.722656 22.425781 46.722656 22.503906 C 46.722656 22.585938 46.699219 22.660156 46.660156 22.734375 C 46.621094 22.808594 46.5625 22.863281 46.492188 22.90625 C 46.417969 22.945312 46.34375 22.964844 46.261719 22.964844 C 46.183594 22.964844 46.105469 22.945312 46.035156 22.90625 C 45.960938 22.863281 45.90625 22.808594 45.863281 22.734375 C 45.824219 22.660156 45.804688 22.585938 45.804688 22.503906 C 45.804688 22.425781 45.824219 22.347656 45.867188 22.273438 C 45.90625 22.199219 45.964844 22.144531 46.035156 22.101562 C 46.109375 22.0625 46.1875 22.042969 46.261719 22.042969 M 46.261719 22.121094 C 46.199219 22.121094 46.136719 22.136719 46.074219 22.167969 C 46.015625 22.203125 45.964844 22.25 45.933594 22.3125 C 45.898438 22.375 45.878906 22.4375 45.878906 22.503906 C 45.878906 22.570312 45.898438 22.636719 45.929688 22.695312 C 45.964844 22.757812 46.011719 22.804688 46.074219 22.839844 C 46.132812 22.875 46.195312 22.890625 46.261719 22.890625 C 46.328125 22.890625 46.390625 22.875 46.453125 22.839844 C 46.511719 22.804688 46.5625 22.757812 46.59375 22.695312 C 46.628906 22.636719 46.644531 22.570312 46.644531 22.503906 C 46.644531 22.4375 46.628906 22.375 46.59375 22.3125 C 46.558594 22.25 46.511719 22.203125 46.449219 22.167969 C 46.390625 22.136719 46.328125 22.121094 46.261719 22.121094 M 46.0625 22.761719 L 46.0625 22.261719 L 46.230469 22.261719 C 46.289062 22.261719 46.332031 22.269531 46.355469 22.277344 C 46.382812 22.285156 46.402344 22.300781 46.417969 22.324219 C 46.433594 22.347656 46.441406 22.371094 46.441406 22.398438 C 46.441406 22.433594 46.429688 22.464844 46.402344 22.492188 C 46.378906 22.519531 46.34375 22.535156 46.300781 22.539062 C 46.320312 22.546875 46.332031 22.554688 46.34375 22.566406 C 46.363281 22.585938 46.386719 22.617188 46.417969 22.664062 L 46.476562 22.761719 L 46.378906 22.761719 L 46.335938 22.683594 C 46.300781 22.621094 46.273438 22.582031 46.253906 22.566406 C 46.238281 22.554688 46.21875 22.550781 46.1875 22.550781 L 46.140625 22.550781 L 46.140625 22.761719 L 46.0625 22.761719 M 46.140625 22.480469 L 46.238281 22.480469 C 46.285156 22.480469 46.316406 22.472656 46.332031 22.460938 C 46.347656 22.445312 46.359375 22.425781 46.359375 22.40625 C 46.359375 22.390625 46.355469 22.375 46.347656 22.367188 C 46.335938 22.355469 46.328125 22.34375 46.3125 22.339844 C 46.296875 22.332031 46.269531 22.332031 46.230469 22.332031 L 46.140625 22.332031 L 46.140625 22.480469 "/>
<path style=" stroke:none;fill-rule:nonzero;fill:rgb(0%,0%,40%);fill-opacity:1;" d="M 19.195312 18.675781 L 19.386719 17.382812 C 19.28125 17.382812 19.128906 17.429688 18.996094 17.429688 C 18.46875 17.429688 18.40625 17.144531 18.445312 16.941406 L 18.964844 14.339844 L 19.761719 14.339844 L 19.925781 12.875 L 19.175781 12.875 L 19.328125 11.984375 L 17.753906 11.984375 C 17.71875 12.019531 16.863281 16.984375 16.863281 17.589844 C 16.863281 18.484375 17.359375 18.882812 18.066406 18.875 C 18.617188 18.871094 19.042969 18.71875 19.195312 18.675781 Z M 19.195312 18.675781 "/>
<path style=" stroke:none;fill-rule:nonzero;fill:rgb(0%,0%,40%);fill-opacity:1;" d="M 19.675781 16.214844 C 19.675781 18.359375 21.082031 18.871094 22.28125 18.871094 C 23.390625 18.871094 23.96875 18.613281 23.96875 18.613281 L 24.234375 17.148438 C 24.234375 17.148438 23.300781 17.53125 22.539062 17.53125 C 20.917969 17.53125 21.203125 16.3125 21.203125 16.3125 L 24.316406 16.320312 C 24.316406 16.320312 24.515625 15.335938 24.515625 14.9375 C 24.515625 13.933594 23.972656 12.703125 22.316406 12.703125 C 20.796875 12.707031 19.675781 14.351562 19.675781 16.214844 Z M 22.320312 14.066406 C 23.171875 14.066406 23.015625 15.03125 23.015625 15.109375 L 21.339844 15.109375 C 21.339844 15.007812 21.5 14.066406 22.320312 14.066406 Z M 22.320312 14.066406 "/>
<path style=" stroke:none;fill-rule:nonzero;fill:rgb(0%,0%,40%);fill-opacity:1;" d="M 31.878906 18.675781 L 32.148438 17.019531 C 32.148438 17.019531 31.410156 17.390625 30.902344 17.390625 C 29.828125 17.390625 29.398438 16.570312 29.398438 15.683594 C 29.398438 13.890625 30.320312 12.902344 31.347656 12.902344 C 32.117188 12.902344 32.734375 13.335938 32.734375 13.335938 L 32.980469 11.726562 C 32.980469 11.726562 32.25 11.199219 31.464844 11.195312 C 29.109375 11.1875 27.757812 12.839844 27.757812 15.699219 C 27.757812 17.59375 28.757812 18.882812 30.558594 18.882812 C 31.066406 18.882812 31.878906 18.675781 31.878906 18.675781 Z M 31.878906 18.675781 "/>
<path style=" stroke:none;fill-rule:nonzero;fill:rgb(0%,0%,40%);fill-opacity:1;" d="M 10.894531 12.730469 C 9.859375 12.730469 9.066406 13.0625 9.066406 13.0625 L 8.847656 14.371094 C 8.847656 14.371094 9.5 14.105469 10.492188 14.105469 C 11.054688 14.105469 11.464844 14.167969 11.464844 14.628906 C 11.464844 14.90625 11.414062 15.011719 11.414062 15.011719 C 11.414062 15.011719 10.972656 14.972656 10.765625 14.972656 C 9.292969 14.972656 8.089844 15.535156 8.089844 17.226562 C 8.089844 18.558594 8.988281 18.863281 9.546875 18.863281 C 10.609375 18.863281 11.03125 18.1875 11.058594 18.1875 L 11.042969 18.746094 C 11.042969 18.746094 12.375 18.746094 12.375 18.746094 L 12.964844 14.5625 C 12.964844 12.785156 11.429688 12.730469 10.894531 12.730469 Z M 11.125 16.128906 C 11.152344 16.382812 11.058594 17.589844 10.148438 17.589844 C 9.679688 17.589844 9.558594 17.230469 9.558594 17.015625 C 9.558594 16.601562 9.78125 16.101562 10.890625 16.101562 C 11.148438 16.101562 11.082031 16.121094 11.125 16.128906 Z M 11.125 16.128906 "/>
<path style=" stroke:none;fill-rule:nonzero;fill:rgb(0%,0%,40%);fill-opacity:1;" d="M 14.378906 18.832031 C 14.71875 18.832031 16.664062 18.921875 16.664062 16.902344 C 16.664062 15.011719 14.863281 15.386719 14.863281 14.628906 C 14.863281 14.25 15.15625 14.132812 15.691406 14.132812 C 15.90625 14.132812 16.726562 14.199219 16.726562 14.199219 L 16.914062 12.859375 C 16.914062 12.859375 16.386719 12.738281 15.523438 12.738281 C 14.40625 12.738281 13.273438 13.1875 13.273438 14.722656 C 13.273438 16.464844 15.164062 16.289062 15.164062 17.019531 C 15.164062 17.511719 14.632812 17.550781 14.226562 17.550781 C 13.523438 17.550781 12.890625 17.308594 12.886719 17.320312 L 12.683594 18.648438 C 12.722656 18.660156 13.113281 18.832031 14.378906 18.832031 Z M 14.378906 18.832031 "/>
<path style=" stroke:none;fill-rule:nonzero;fill:rgb(0%,0%,40%);fill-opacity:1;" d="M 44.328125 11.511719 L 44.058594 13.558594 C 44.058594 13.558594 43.488281 12.769531 42.597656 12.769531 C 40.925781 12.769531 40.0625 14.449219 40.0625 16.375 C 40.0625 17.621094 40.679688 18.84375 41.933594 18.84375 C 42.839844 18.84375 43.339844 18.207031 43.339844 18.207031 L 43.273438 18.75 L 44.742188 18.75 L 45.894531 11.523438 Z M 43.683594 15.492188 C 43.683594 16.292969 43.285156 17.367188 42.46875 17.367188 C 41.925781 17.367188 41.671875 16.90625 41.671875 16.1875 C 41.671875 15.007812 42.195312 14.230469 42.859375 14.230469 C 43.402344 14.230469 43.683594 14.605469 43.683594 15.492188 Z M 43.683594 15.492188 "/>
<path style=" stroke:none;fill-rule:nonzero;fill:rgb(0%,0%,40%);fill-opacity:1;" d="M 2.722656 18.757812 L 3.640625 13.300781 L 3.773438 18.757812 L 4.816406 18.757812 L 6.753906 13.300781 L 5.894531 18.757812 L 7.441406 18.757812 L 8.628906 11.519531 L 6.175781 11.5 L 4.714844 15.929688 L 4.675781 11.519531 L 2.425781 11.519531 L 1.21875 18.757812 Z M 2.722656 18.757812 "/>
<path style=" stroke:none;fill-rule:nonzero;fill:rgb(0%,0%,40%);fill-opacity:1;" d="M 25.976562 18.765625 C 26.417969 16.25 26.574219 14.265625 27.855469 14.675781 C 28.039062 13.703125 28.476562 12.855469 28.675781 12.441406 C 28.675781 12.441406 28.613281 12.347656 28.21875 12.347656 C 27.542969 12.347656 26.640625 13.730469 26.640625 13.730469 L 26.773438 12.875 L 25.367188 12.875 L 24.425781 18.765625 Z M 25.976562 18.765625 "/>
<path style=" stroke:none;fill-rule:nonzero;fill:rgb(0%,0%,40%);fill-opacity:1;" d="M 35.039062 12.730469 C 34.003906 12.730469 33.210938 13.0625 33.210938 13.0625 L 32.992188 14.371094 C 32.992188 14.371094 33.648438 14.105469 34.636719 14.105469 C 35.199219 14.105469 35.609375 14.167969 35.609375 14.628906 C 35.609375 14.90625 35.5625 15.011719 35.5625 15.011719 C 35.5625 15.011719 35.117188 14.972656 34.914062 14.972656 C 33.4375 14.972656 32.234375 15.535156 32.234375 17.226562 C 32.234375 18.558594 33.136719 18.863281 33.691406 18.863281 C 34.757812 18.863281 35.179688 18.1875 35.203125 18.1875 L 35.191406 18.746094 L 36.519531 18.746094 L 37.113281 14.5625 C 37.113281 12.785156 35.574219 12.730469 35.039062 12.730469 Z M 35.269531 16.128906 C 35.300781 16.382812 35.203125 17.589844 34.296875 17.589844 C 33.828125 17.589844 33.707031 17.230469 33.707031 17.015625 C 33.707031 16.601562 33.929688 16.101562 35.035156 16.101562 C 35.292969 16.101562 35.226562 16.121094 35.269531 16.128906 Z M 35.269531 16.128906 "/>
<path style=" stroke:none;fill-rule:nonzero;fill:rgb(0%,0%,40%);fill-opacity:1;" d="M 38.644531 18.765625 C 38.886719 16.914062 39.332031 14.316406 40.519531 14.675781 C 40.703125 13.703125 40.527344 13.703125 40.132812 13.703125 C 39.453125 13.703125 39.304688 13.730469 39.304688 13.730469 L 39.441406 12.875 L 38.035156 12.875 L 37.09375 18.765625 Z M 38.644531 18.765625 "/>
<path style=" stroke:none;fill-rule:nonzero;fill:rgb(100%,100%,100%);fill-opacity:1;" d="M 19.589844 18.214844 L 19.777344 16.921875 C 19.675781 16.921875 19.523438 16.96875 19.390625 16.96875 C 18.863281 16.96875 18.804688 16.6875 18.839844 16.476562 L 19.265625 13.84375 L 20.0625 13.84375 L 20.253906 12.414062 L 19.503906 12.414062 L 19.65625 11.523438 L 18.144531 11.523438 C 18.113281 11.558594 17.253906 16.523438 17.253906 17.128906 C 17.253906 18.023438 17.753906 18.421875 18.457031 18.414062 C 19.007812 18.410156 19.4375 18.257812 19.589844 18.214844 Z M 19.589844 18.214844 "/>
<path style=" stroke:none;fill-rule:nonzero;fill:rgb(100%,100%,100%);fill-opacity:1;" d="M 20.066406 15.75 C 20.066406 17.898438 21.476562 18.410156 22.675781 18.410156 C 23.78125 18.410156 24.269531 18.160156 24.269531 18.160156 L 24.535156 16.695312 C 24.535156 16.695312 23.691406 17.070312 22.933594 17.070312 C 21.3125 17.070312 21.59375 15.851562 21.59375 15.851562 L 24.664062 15.851562 C 24.664062 15.851562 24.859375 14.867188 24.859375 14.464844 C 24.859375 13.464844 24.367188 12.242188 22.707031 12.242188 C 21.191406 12.242188 20.066406 13.890625 20.066406 15.75 Z M 22.714844 13.605469 C 23.566406 13.605469 23.410156 14.570312 23.410156 14.648438 L 21.734375 14.648438 C 21.734375 14.546875 21.890625 13.605469 22.714844 13.605469 Z M 22.714844 13.605469 "/>
<path style=" stroke:none;fill-rule:nonzero;fill:rgb(100%,100%,100%);fill-opacity:1;" d="M 32.273438 18.214844 L 32.542969 16.558594 C 32.542969 16.558594 31.800781 16.929688 31.292969 16.929688 C 30.222656 16.929688 29.792969 16.109375 29.792969 15.222656 C 29.792969 13.429688 30.714844 12.441406 31.742188 12.441406 C 32.511719 12.441406 33.128906 12.878906 33.128906 12.878906 L 33.375 11.265625 C 33.375 11.265625 32.457031 10.894531 31.671875 10.894531 C 29.929688 10.894531 28.234375 12.417969 28.234375 15.273438 C 28.234375 17.171875 29.152344 18.421875 30.953125 18.421875 C 31.460938 18.421875 32.273438 18.214844 32.273438 18.214844 Z M 32.273438 18.214844 "/>
<path style=" stroke:none;fill-rule:nonzero;fill:rgb(100%,100%,100%);fill-opacity:1;" d="M 11.289062 12.265625 C 10.253906 12.265625 9.460938 12.601562 9.460938 12.601562 L 9.238281 13.910156 C 9.238281 13.910156 9.894531 13.644531 10.886719 13.644531 C 11.445312 13.644531 11.859375 13.707031 11.859375 14.167969 C 11.859375 14.445312 11.808594 14.550781 11.808594 14.550781 C 11.808594 14.550781 11.363281 14.511719 11.160156 14.511719 C 9.855469 14.511719 8.480469 15.074219 8.480469 16.765625 C 8.480469 18.097656 9.382812 18.402344 9.941406 18.402344 C 11.003906 18.402344 11.464844 17.707031 11.488281 17.707031 L 11.4375 18.285156 L 12.765625 18.285156 L 13.359375 14.101562 C 13.359375 12.324219 11.820312 12.265625 11.289062 12.265625 Z M 11.609375 15.675781 C 11.640625 15.929688 11.453125 17.128906 10.542969 17.128906 C 10.074219 17.128906 9.953125 16.769531 9.953125 16.554688 C 9.953125 16.140625 10.175781 15.640625 11.28125 15.640625 C 11.539062 15.640625 11.566406 15.667969 11.609375 15.675781 Z M 11.609375 15.675781 "/>
<path style=" stroke:none;fill-rule:nonzero;fill:rgb(100%,100%,100%);fill-opacity:1;" d="M 14.773438 18.371094 C 15.113281 18.371094 17.054688 18.460938 17.054688 16.441406 C 17.054688 14.550781 15.257812 14.925781 15.257812 14.167969 C 15.257812 13.789062 15.550781 13.671875 16.085938 13.671875 C 16.300781 13.671875 17.117188 13.738281 17.117188 13.738281 L 17.308594 12.394531 C 17.308594 12.394531 16.777344 12.277344 15.914062 12.277344 C 14.800781 12.277344 13.664062 12.726562 13.664062 14.261719 C 13.664062 16 15.554688 15.828125 15.554688 16.558594 C 15.554688 17.050781 15.027344 17.089844 14.621094 17.089844 C 13.917969 17.089844 13.28125 16.847656 13.28125 16.855469 L 13.078125 18.1875 C 13.117188 18.195312 13.507812 18.371094 14.773438 18.371094 Z M 14.773438 18.371094 "/>
<path style=" stroke:none;fill-rule:nonzero;fill:rgb(100%,100%,100%);fill-opacity:1;" d="M 44.777344 11.0625 L 44.449219 13.097656 C 44.449219 13.097656 43.882812 12.308594 42.992188 12.308594 C 41.609375 12.308594 40.457031 13.988281 40.457031 15.914062 C 40.457031 17.160156 41.070312 18.382812 42.328125 18.382812 C 43.234375 18.382812 43.734375 17.746094 43.734375 17.746094 L 43.667969 18.289062 L 45.136719 18.289062 L 46.289062 11.0625 Z M 44.074219 15.03125 C 44.074219 15.832031 43.679688 16.90625 42.863281 16.90625 C 42.320312 16.90625 42.066406 16.445312 42.066406 15.726562 C 42.066406 14.546875 42.589844 13.769531 43.253906 13.769531 C 43.796875 13.769531 44.074219 14.144531 44.074219 15.03125 Z M 44.074219 15.03125 "/>
<path style=" stroke:none;fill-rule:nonzero;fill:rgb(100%,100%,100%);fill-opacity:1;" d="M 3.113281 18.296875 L 4.035156 12.839844 L 4.167969 18.296875 L 5.207031 18.296875 L 7.148438 12.839844 L 6.289062 18.296875 L 7.835938 18.296875 L 9.023438 11.058594 L 6.632812 11.058594 L 5.148438 15.5 L 5.070312 11.058594 L 2.867188 11.058594 L 1.660156 18.296875 Z M 3.113281 18.296875 "/>
<path style=" stroke:none;fill-rule:nonzero;fill:rgb(100%,100%,100%);fill-opacity:1;" d="M 26.371094 18.304688 C 26.808594 15.789062 26.890625 13.746094 27.941406 14.121094 C 28.125 13.144531 28.300781 12.769531 28.5 12.359375 C 28.5 12.359375 28.40625 12.335938 28.210938 12.335938 C 27.535156 12.335938 27.035156 13.269531 27.035156 13.269531 L 27.167969 12.414062 L 25.761719 12.414062 L 24.820312 18.304688 Z M 26.371094 18.304688 "/>
<path style=" stroke:none;fill-rule:nonzero;fill:rgb(100%,100%,100%);fill-opacity:1;" d="M 35.757812 12.265625 C 34.722656 12.265625 33.925781 12.601562 33.925781 12.601562 L 33.707031 13.910156 C 33.707031 13.910156 34.363281 13.644531 35.351562 13.644531 C 35.914062 13.644531 36.328125 13.707031 36.328125 14.167969 C 36.328125 14.445312 36.277344 14.550781 36.277344 14.550781 C 36.277344 14.550781 35.832031 14.511719 35.628906 14.511719 C 34.324219 14.511719 32.949219 15.074219 32.949219 16.765625 C 32.949219 18.097656 33.851562 18.402344 34.40625 18.402344 C 35.472656 18.402344 35.933594 17.707031 35.957031 17.707031 L 35.90625 18.285156 C 35.90625 18.285156 37.234375 18.285156 37.234375 18.285156 L 37.828125 14.101562 C 37.828125 12.324219 36.289062 12.265625 35.757812 12.265625 Z M 36.078125 15.675781 C 36.109375 15.929688 35.921875 17.128906 35.011719 17.128906 C 34.542969 17.128906 34.421875 16.769531 34.421875 16.554688 C 34.421875 16.140625 34.644531 15.640625 35.75 15.640625 C 36.007812 15.640625 36.035156 15.667969 36.078125 15.675781 Z M 36.078125 15.675781 "/>
<path style=" stroke:none;fill-rule:nonzero;fill:rgb(100%,100%,100%);fill-opacity:1;" d="M 39.042969 18.304688 C 39.484375 15.789062 39.566406 13.746094 40.613281 14.121094 C 40.796875 13.144531 40.972656 12.769531 41.175781 12.359375 C 41.175781 12.359375 41.082031 12.335938 40.882812 12.335938 C 40.207031 12.335938 39.707031 13.269531 39.707031 13.269531 L 39.839844 12.414062 L 38.433594 12.414062 L 37.492188 18.304688 Z M 39.042969 18.304688 "/>
<path style=" stroke:none;fill-rule:nonzero;fill:rgb(100%,100%,100%);fill-opacity:1;" d="M 46.257812 17.394531 C 46.332031 17.394531 46.410156 17.414062 46.480469 17.457031 C 46.554688 17.496094 46.613281 17.550781 46.652344 17.625 C 46.695312 17.699219 46.714844 17.777344 46.714844 17.859375 C 46.714844 17.9375 46.695312 18.015625 46.652344 18.085938 C 46.613281 18.160156 46.558594 18.21875 46.484375 18.257812 C 46.410156 18.296875 46.335938 18.320312 46.257812 18.320312 C 46.175781 18.320312 46.101562 18.296875 46.027344 18.257812 C 45.957031 18.21875 45.898438 18.160156 45.859375 18.085938 C 45.816406 18.015625 45.796875 17.9375 45.796875 17.859375 C 45.796875 17.777344 45.816406 17.699219 45.859375 17.625 C 45.902344 17.550781 45.957031 17.496094 46.03125 17.457031 C 46.105469 17.414062 46.179688 17.394531 46.257812 17.394531 M 46.257812 17.472656 C 46.191406 17.472656 46.128906 17.488281 46.070312 17.523438 C 46.007812 17.554688 45.960938 17.601562 45.925781 17.664062 C 45.890625 17.726562 45.875 17.789062 45.875 17.855469 C 45.875 17.925781 45.890625 17.988281 45.925781 18.046875 C 45.957031 18.109375 46.003906 18.15625 46.066406 18.191406 C 46.128906 18.226562 46.191406 18.242188 46.257812 18.242188 C 46.324219 18.242188 46.386719 18.226562 46.445312 18.191406 C 46.507812 18.15625 46.554688 18.109375 46.589844 18.046875 C 46.621094 17.988281 46.636719 17.925781 46.636719 17.855469 C 46.636719 17.789062 46.621094 17.726562 46.585938 17.664062 C 46.554688 17.601562 46.503906 17.554688 46.445312 17.523438 C 46.382812 17.488281 46.320312 17.472656 46.257812 17.472656 M 46.054688 18.113281 L 46.054688 17.617188 L 46.226562 17.617188 C 46.285156 17.617188 46.324219 17.621094 46.351562 17.628906 C 46.378906 17.640625 46.398438 17.65625 46.414062 17.679688 C 46.429688 17.699219 46.4375 17.726562 46.4375 17.75 C 46.4375 17.785156 46.421875 17.820312 46.398438 17.84375 C 46.371094 17.871094 46.339844 17.886719 46.296875 17.890625 C 46.3125 17.898438 46.328125 17.90625 46.335938 17.917969 C 46.359375 17.9375 46.382812 17.96875 46.410156 18.015625 L 46.472656 18.113281 L 46.375 18.113281 L 46.332031 18.035156 C 46.296875 17.972656 46.269531 17.933594 46.246094 17.917969 C 46.230469 17.90625 46.210938 17.902344 46.183594 17.902344 L 46.136719 17.902344 L 46.136719 18.113281 L 46.054688 18.113281 M 46.136719 17.832031 L 46.230469 17.832031 C 46.277344 17.832031 46.308594 17.824219 46.328125 17.8125 C 46.34375 17.796875 46.351562 17.78125 46.351562 17.757812 C 46.351562 17.742188 46.347656 17.730469 46.339844 17.71875 C 46.332031 17.707031 46.320312 17.699219 46.304688 17.691406 C 46.292969 17.6875 46.265625 17.683594 46.226562 17.683594 L 46.136719 17.683594 L 46.136719 17.832031 "/>
</g>
</svg>
